<svg xmlns="http://www.w3.org/2000/svg" width="1080" viewBox="0 0 810 810" height="1080" version="1.0">
  <defs>
    <clipPath id="a">
      <path d="M222 662h191v148H222Zm0 0" />
    </clipPath>
    <clipPath id="b">
      <path d="m349.008 662.863 63.379 38.7-126.633 207.394-63.379-38.703Zm0 0" />
    </clipPath>
  </defs>
  <path fill="#fff" d="M-81-81h972v972H-81z" />
  <path d="M-81-81h972v972H-81z" />
  <path d="M315.078 700.667c-52.043 7.137-101.371 6.809-147.985-.984-45.48 49.543-79.918 84.312-103.312 104.312-43.574 36.219-90.102 57.719-139.578 64.5-56.438 7.727-95.133-3.582-116.094-33.937-6.125-9.239-9.836-18.618-11.14-28.141-1.313-9.531-.72-17.457 1.78-23.781 2.493-6.32 5.891-11.453 10.204-15.39 8.949-8.333 20.015-13.4 33.203-15.204 18.336-2.508 28.633 4.484 30.89 20.984 1 7.325-1.156 14.059-6.468 20.203-5.32 6.137-13.207 9.922-23.657 11.36-10.445 1.43-18.484.664-24.109-2.297l.516 3.828c5.531 40.324 41.281 55.965 107.25 46.922 45.812-6.27 94.906-33.535 147.281-81.797l73.094-75.547c-54.711-12.289-100.074-34.07-136.094-65.344-34.668-29.601-55.89-64.593-63.672-104.968-7.668-39.645.863-75.54 25.594-107.688 25.976-33.789 64.617-54.203 115.922-61.234 71.457-9.79 135.754 12.57 192.89 67.078 17.227 16.687 32.426 34.953 45.594 54.797C429.375 349.35 496.39 266.237 528.234 228.995l79.469-90.39C715.67 21.877 798.425-40.432 855.968-48.318c6.594-.907 10.036-.258 10.328 1.937.352 2.574-2.343 5.375-8.093 8.406-5.742 3.024-11.774 8.7-18.094 17.032-6.324 8.324-15.273 22.054-26.844 41.187l-44.453 76.11-304.36 545.765c98.071-44.426 170.329-109.77 216.766-196.031 14.907-27.446 24.317-50.02 28.235-67.719 5.363-23.52 8.968-35.41 10.812-35.672 1.094-.144 3.04 1.18 5.844 3.969 2.812 2.781 4.629 9.25 5.453 19.406.832 10.156-.187 22.438-3.062 36.844a219.91 219.91 0 0 1-12.75 41.797c-9.243 22.543-25.977 48.914-50.204 79.11-48.593 62.304-120.437 110.234-215.53 143.796l-76.97 137.14-35.5 2.594c-11.824.887-21.125 1.793-27.906 2.72-6.781.929-12.508 2.085-17.172 3.468l-15.078 4.328 67.578-111.766a117.454 117.454 0 0 1 2.563-5.671 29.315 29.315 0 0 0 2.047-5.61 569.387 569.387 0 0 1-34.5 5.844Zm22.14-206.328c20.301 36.418 32.332 68.37 36.094 95.86 3.77 27.491 4.535 49.417 2.297 65.78L545.734 381.2c113.05-174.927 183.36-281.735 210.922-320.423 27.562-38.695 48.062-66.242 61.5-82.64L783.42-1.411C736.898 26.995 673.097 87.26 592.015 179.386L490.89 299.65ZM158.64 682.9c62.727-73.55 115.223-137.312 157.485-191.28-39.907-65.103-92.496-104.192-157.766-117.267-21.836-4.101-42.742-4.785-62.719-2.046-19.969 2.73-37.258 8.734-51.86 18.015-14.593 9.281-26.952 20.602-37.077 33.953-21.824 28.742-30.352 60.524-25.578 95.344 8.382 61.2 43.879 107.668 106.484 139.406 20.852 10.586 44.531 18.543 71.031 23.875Zm20.063 3.422c41.883 5.844 87.742 5.352 137.578-1.484a449.63 449.63 0 0 0 38.25-6.938c5.476-22.78 6.832-44.25 4.062-64.406-5.117-37.375-16.058-72.273-32.828-104.703-71.812 89-120.836 148.18-147.062 177.531Zm0 0" fill="#ffde59" />
  <path d="M315.078 714.293c-52.043 7.137-101.371 6.809-147.985-.984-45.48 49.543-79.918 84.312-103.312 104.312-43.574 36.22-90.102 57.72-139.578 64.5-56.438 7.727-95.133-3.582-116.094-33.937-6.125-9.238-9.836-18.617-11.14-28.14-1.313-9.532-.72-17.458 1.78-23.782 2.493-6.32 5.891-11.453 10.204-15.39 8.949-8.333 20.015-13.399 33.203-15.204 18.336-2.508 28.633 4.485 30.89 20.985 1 7.324-1.156 14.058-6.468 20.203-5.32 6.137-13.207 9.922-23.657 11.36-10.445 1.429-18.484.663-24.109-2.298l.516 3.828c5.531 40.325 41.281 55.965 107.25 46.922 45.812-6.27 94.906-33.535 147.281-81.797l73.094-75.546c-54.711-12.29-100.074-34.07-136.094-65.344-34.668-29.602-55.89-64.594-63.672-104.969-7.668-39.644.863-75.539 25.594-107.687 25.976-33.79 64.617-54.204 115.922-61.235 71.457-9.789 135.754 12.57 192.89 67.078 17.227 16.688 32.426 34.953 45.594 54.797C429.375 362.977 496.39 279.864 528.234 242.621l79.469-90.39C715.67 35.504 798.425-26.804 855.968-34.691c6.594-.906 10.036-.258 10.328 1.937.352 2.575-2.343 5.375-8.093 8.407-5.742 3.023-11.774 8.699-18.094 17.03-6.324 8.325-15.273 22.056-26.844 41.188l-44.453 76.11-304.36 545.765c98.071-44.425 170.329-109.77 216.766-196.03 14.907-27.446 24.317-50.02 28.235-67.72 5.363-23.52 8.968-35.41 10.812-35.671 1.094-.145 3.04 1.18 5.844 3.968 2.812 2.782 4.629 9.25 5.453 19.407.832 10.156-.187 22.437-3.062 36.843a219.91 219.91 0 0 1-12.75 41.797c-9.243 22.543-25.977 48.914-50.204 79.11-48.593 62.304-120.437 110.234-215.53 143.796l-76.97 137.141-35.5 2.594c-11.824.887-21.125 1.793-27.906 2.719-6.781.93-12.508 2.085-17.172 3.468l-15.078 4.328 67.578-111.765a117.454 117.454 0 0 1 2.563-5.672 29.315 29.315 0 0 0 2.047-5.61 569.387 569.387 0 0 1-34.5 5.844Zm22.14-206.328c20.301 36.418 32.332 68.371 36.094 95.86 3.77 27.492 4.535 49.418 2.297 65.78l170.125-274.78c113.05-174.926 183.36-281.735 210.922-320.422 27.562-38.696 48.062-66.243 61.5-82.641L783.42 12.215c-46.523 28.406-110.324 88.672-191.406 180.797L490.89 313.278ZM158.64 696.528c62.727-73.551 115.223-137.313 157.485-191.282-39.907-65.101-92.496-104.191-157.766-117.265-21.836-4.102-42.742-4.785-62.719-2.047-19.969 2.73-37.258 8.734-51.86 18.016-14.593 9.28-26.952 20.601-37.077 33.953-21.824 28.742-30.352 60.523-25.578 95.343 8.382 61.2 43.879 107.668 106.484 139.407 20.852 10.586 44.531 18.543 71.031 23.875Zm20.063 3.422c41.883 5.843 87.742 5.351 137.578-1.485a449.63 449.63 0 0 0 38.25-6.937c5.476-22.782 6.832-44.25 4.062-64.407-5.117-37.375-16.058-72.273-32.828-104.703-71.812 89-120.836 148.18-147.062 177.532Zm0 0" fill="#ffde59" />
  <path d="M311.087 686.941c-52.043 7.137-101.372 6.809-147.985-.984-45.48 49.543-79.918 84.312-103.312 104.312-43.575 36.22-90.102 57.72-139.578 64.5-56.438 7.727-95.133-3.582-116.094-33.937-6.125-9.238-9.836-18.617-11.14-28.14-1.313-9.532-.72-17.458 1.78-23.782 2.493-6.32 5.891-11.453 10.204-15.39 8.949-8.333 20.015-13.4 33.203-15.204 18.336-2.508 28.632 4.485 30.89 20.985 1 7.324-1.156 14.058-6.468 20.203-5.32 6.136-13.207 9.922-23.657 11.36-10.445 1.429-18.484.663-24.11-2.298l.517 3.828c5.53 40.325 41.28 55.965 107.25 46.922 45.812-6.27 94.906-33.535 147.28-81.797l73.095-75.546c-54.711-12.29-100.075-34.07-136.094-65.344-34.668-29.602-55.89-64.594-63.672-104.969-7.668-39.645.863-75.54 25.594-107.687 25.976-33.79 64.617-54.204 115.922-61.235 71.457-9.789 135.753 12.57 192.89 67.078 17.227 16.688 32.426 34.953 45.594 54.797C425.383 335.625 492.399 252.512 524.243 215.27l79.469-90.39C711.68 8.152 794.434-54.156 851.977-62.043c6.594-.906 10.035-.258 10.328 1.937.352 2.575-2.343 5.375-8.093 8.407-5.743 3.023-11.774 8.699-18.094 17.03-6.324 8.325-15.274 22.056-26.844 41.188l-44.453 76.11-304.36 545.765c98.07-44.425 170.329-109.77 216.766-196.03 14.906-27.446 24.317-50.02 28.235-67.72 5.363-23.52 8.968-35.41 10.812-35.671 1.094-.145 3.04 1.18 5.844 3.968 2.812 2.782 4.629 9.25 5.453 19.407.832 10.156-.188 22.437-3.063 36.843a219.91 219.91 0 0 1-12.75 41.797c-9.242 22.543-25.976 48.914-50.203 79.11-48.593 62.304-120.437 110.234-215.53 143.796l-76.97 137.141-35.5 2.594c-11.824.886-21.125 1.793-27.906 2.719-6.781.93-12.508 2.085-17.172 3.468l-15.078 4.328 67.578-111.765a117.454 117.454 0 0 1 2.563-5.672 29.315 29.315 0 0 0 2.047-5.61 569.387 569.387 0 0 1-34.5 5.844Zm22.14-206.328c20.301 36.418 32.332 68.371 36.094 95.86 3.77 27.492 4.535 49.417 2.297 65.78l170.125-274.78C654.793 192.547 725.103 85.738 752.665 47.05c27.562-38.696 48.062-66.243 61.5-82.641L779.43-15.137C732.907 13.27 669.106 73.535 588.024 165.66L486.9 285.926ZM154.65 669.176c62.727-73.551 115.223-137.313 157.484-191.282-39.906-65.101-92.496-104.191-157.765-117.265-21.836-4.102-42.742-4.785-62.719-2.047-19.969 2.73-37.258 8.734-51.86 18.016-14.593 9.28-26.952 20.601-37.077 33.953-21.825 28.742-30.352 60.523-25.579 95.343 8.383 61.2 43.88 107.668 106.485 139.407 20.851 10.586 44.531 18.543 71.031 23.875Zm20.063 3.422c41.882 5.843 87.742 5.351 137.578-1.485a449.63 449.63 0 0 0 38.25-6.937c5.476-22.782 6.832-44.25 4.062-64.407-5.117-37.375-16.058-72.273-32.828-104.703-71.812 89-120.836 148.18-147.062 177.532Zm0 0" fill="#ffde59" />
  <path d="M305.791 678.32c-52.042 7.137-101.37 6.809-147.984-.984-45.48 49.543-79.918 84.312-103.312 104.312-43.575 36.22-90.102 57.72-139.579 64.5-56.437 7.727-95.132-3.582-116.093-33.937-6.125-9.238-9.836-18.617-11.14-28.14-1.313-9.532-.72-17.458 1.78-23.782 2.493-6.32 5.891-11.453 10.203-15.39 8.95-8.333 20.016-13.4 33.204-15.204 18.336-2.508 28.632 4.485 30.89 20.985 1 7.324-1.156 14.058-6.469 20.203-5.32 6.136-13.207 9.922-23.656 11.36-10.445 1.429-18.484.663-24.11-2.298l.516 3.828c5.532 40.325 41.282 55.965 107.25 46.922 45.813-6.27 94.907-33.535 147.282-81.797l73.093-75.547c-54.71-12.289-100.074-34.07-136.093-65.343-34.668-29.602-55.89-64.594-63.672-104.97-7.668-39.644.863-75.538 25.594-107.687 25.976-33.789 64.617-54.203 115.921-61.234 71.458-9.789 135.754 12.57 192.891 67.078 17.227 16.688 32.426 34.953 45.594 54.797C420.088 327.004 487.104 243.89 518.948 206.648l79.468-90.39C706.386-.47 789.14-62.777 846.682-70.664c6.594-.906 10.035-.258 10.328 1.937.352 2.575-2.344 5.375-8.094 8.407-5.742 3.023-11.773 8.699-18.093 17.03-6.324 8.325-15.274 22.055-26.844 41.188l-44.453 76.11-304.36 545.765c98.07-44.425 170.329-109.77 216.766-196.03 14.906-27.446 24.317-50.02 28.234-67.72 5.364-23.52 8.97-35.41 10.813-35.672 1.094-.144 3.039 1.18 5.844 3.97 2.812 2.78 4.629 9.25 5.453 19.405.832 10.157-.188 22.438-3.063 36.844a219.91 219.91 0 0 1-12.75 41.797c-9.242 22.543-25.976 48.914-50.203 79.11C607.666 563.78 535.823 611.71 440.73 645.272l-76.969 137.14-35.5 2.595c-11.824.886-21.125 1.793-27.906 2.718-6.781.93-12.508 2.086-17.172 3.47l-15.078 4.327 67.578-111.765a117.454 117.454 0 0 1 2.563-5.672 29.315 29.315 0 0 0 2.046-5.61 569.387 569.387 0 0 1-34.5 5.844Zm22.141-206.328c20.3 36.418 32.332 68.371 36.094 95.86 3.77 27.492 4.535 49.417 2.297 65.78l170.125-274.78C649.498 183.925 719.808 77.116 747.37 38.43c27.562-38.696 48.062-66.243 61.5-82.641l-34.735 20.453C727.612 4.648 663.811 64.914 582.73 157.04L481.604 277.305ZM149.354 660.555c62.727-73.551 115.223-137.313 157.484-191.282-39.906-65.101-92.496-104.191-157.765-117.265-21.836-4.102-42.742-4.785-62.719-2.047-19.969 2.73-37.258 8.734-51.86 18.015-14.593 9.282-26.953 20.602-37.078 33.954-21.824 28.742-30.351 60.523-25.578 95.343 8.383 61.2 43.88 107.668 106.485 139.407 20.851 10.585 44.531 18.543 71.031 23.875Zm20.062 3.421c41.883 5.844 87.743 5.352 137.579-1.484a449.63 449.63 0 0 0 38.25-6.937c5.476-22.782 6.832-44.25 4.062-64.407-5.117-37.375-16.058-72.273-32.828-104.703-71.813 89-120.836 148.18-147.063 177.531Zm0 0" fill="#ffde59" />
  <path d="M299.468 714.293c-52.043 7.137-101.371 6.809-147.985-.984-45.48 49.543-79.918 84.312-103.312 104.312-43.574 36.22-90.102 57.72-139.578 64.5-56.438 7.727-95.133-3.582-116.094-33.937-6.125-9.238-9.836-18.617-11.14-28.14-1.313-9.532-.72-17.458 1.78-23.782 2.493-6.32 5.891-11.453 10.204-15.39 8.949-8.333 20.015-13.399 33.203-15.204 18.336-2.508 28.633 4.485 30.89 20.985 1 7.324-1.156 14.058-6.468 20.203-5.32 6.137-13.207 9.922-23.657 11.36-10.445 1.429-18.484.663-24.109-2.298l.516 3.828c5.53 40.325 41.28 55.965 107.25 46.922 45.812-6.27 94.906-33.535 147.28-81.797l73.095-75.546c-54.711-12.29-100.075-34.07-136.094-65.344-34.668-29.602-55.89-64.594-63.672-104.969-7.668-39.644.863-75.539 25.594-107.687 25.976-33.79 64.617-54.204 115.922-61.235 71.457-9.789 135.754 12.57 192.89 67.078 17.227 16.688 32.426 34.953 45.594 54.797C413.765 362.977 480.78 279.864 512.624 242.621l79.469-90.39C700.06 35.504 782.815-26.804 840.358-34.691c6.594-.906 10.035-.258 10.328 1.937.352 2.575-2.343 5.375-8.093 8.407-5.742 3.023-11.774 8.699-18.094 17.03-6.324 8.325-15.273 22.056-26.844 41.188l-44.453 76.11-304.36 545.765c98.071-44.425 170.329-109.77 216.766-196.03 14.907-27.446 24.317-50.02 28.235-67.72 5.363-23.52 8.968-35.41 10.812-35.671 1.094-.145 3.04 1.18 5.844 3.968 2.812 2.782 4.629 9.25 5.453 19.407.832 10.156-.187 22.437-3.062 36.843a219.91 219.91 0 0 1-12.75 41.797c-9.243 22.543-25.977 48.914-50.204 79.11-48.593 62.304-120.437 110.234-215.53 143.796l-76.97 137.141-35.5 2.594c-11.824.887-21.125 1.793-27.906 2.719-6.781.93-12.508 2.085-17.172 3.468l-15.078 4.328 67.578-111.765a117.454 117.454 0 0 1 2.563-5.672 29.315 29.315 0 0 0 2.047-5.61 569.387 569.387 0 0 1-34.5 5.844Zm22.14-206.328c20.301 36.418 32.332 68.371 36.094 95.86 3.77 27.492 4.535 49.418 2.297 65.78l170.125-274.78c113.05-174.926 183.36-281.735 210.922-320.422 27.562-38.696 48.062-66.243 61.5-82.641L767.81 12.215c-46.523 28.406-110.324 88.672-191.406 180.797L475.28 313.278ZM143.03 696.528c62.727-73.551 115.223-137.313 157.485-191.282-39.907-65.101-92.497-104.191-157.766-117.265-21.836-4.102-42.742-4.785-62.719-2.047-19.969 2.73-37.258 8.734-51.86 18.016-14.593 9.28-26.952 20.601-37.077 33.953-21.825 28.742-30.352 60.523-25.578 95.343 8.382 61.2 43.878 107.668 106.484 139.407 20.852 10.586 44.531 18.543 71.031 23.875Zm20.063 3.422c41.883 5.843 87.742 5.351 137.578-1.485a449.63 449.63 0 0 0 38.25-6.937c5.476-22.782 6.832-44.25 4.062-64.407-5.117-37.375-16.058-72.273-32.828-104.703-71.812 89-120.836 148.18-147.062 177.532Zm0 0" fill="#ffde59" />
  <path d="M305.791 727.694c-52.042 7.137-101.37 6.81-147.984-.984-45.48 49.543-79.918 84.313-103.312 104.313-43.575 36.218-90.102 57.718-139.579 64.5-56.437 7.726-95.132-3.582-116.093-33.938-6.125-9.238-9.836-18.617-11.14-28.14-1.313-9.532-.72-17.458 1.78-23.782 2.493-6.32 5.891-11.453 10.203-15.39 8.95-8.332 20.016-13.399 33.204-15.204 18.336-2.507 28.632 4.485 30.89 20.985 1 7.324-1.156 14.058-6.469 20.203-5.32 6.137-13.207 9.922-23.656 11.36-10.445 1.429-18.484.663-24.11-2.298l.516 3.829c5.532 40.324 41.282 55.964 107.25 46.921 45.813-6.27 94.907-33.535 147.282-81.796l73.093-75.547c-54.71-12.29-100.074-34.07-136.093-65.344-34.668-29.602-55.89-64.594-63.672-104.969-7.668-39.644.863-75.539 25.594-107.687 25.976-33.79 64.617-54.203 115.921-61.235 71.458-9.789 135.754 12.57 192.891 67.078 17.227 16.688 32.426 34.954 45.594 54.797 102.187-128.988 169.203-212.101 201.047-249.343l79.468-90.391C706.386 48.905 789.14-13.403 846.682-21.29c6.594-.906 10.035-.258 10.328 1.938.352 2.574-2.344 5.375-8.094 8.406-5.742 3.023-11.773 8.7-18.093 17.031-6.324 8.324-15.274 22.055-26.844 41.188l-44.453 76.109-304.36 545.766c98.07-44.426 170.329-109.77 216.766-196.032 14.906-27.445 24.317-50.02 28.234-67.718 5.364-23.52 8.97-35.41 10.813-35.672 1.094-.145 3.039 1.18 5.844 3.968 2.812 2.782 4.629 9.25 5.453 19.407.832 10.156-.188 22.437-3.063 36.843a219.91 219.91 0 0 1-12.75 41.797c-9.242 22.543-25.976 48.914-50.203 79.11-48.594 62.304-120.437 110.234-215.531 143.797l-76.969 137.14-35.5 2.594c-11.824.887-21.125 1.793-27.906 2.719-6.781.93-12.508 2.086-17.172 3.468l-15.078 4.329 67.578-111.766a117.454 117.454 0 0 1 2.563-5.672 29.315 29.315 0 0 0 2.046-5.61 569.387 569.387 0 0 1-34.5 5.844Zm22.141-206.328c20.3 36.418 32.332 68.371 36.094 95.86 3.77 27.492 4.535 49.418 2.297 65.781l170.125-274.781C649.498 233.3 719.808 126.49 747.37 87.804c27.562-38.695 48.062-66.242 61.5-82.64l-34.735 20.452c-46.523 28.407-110.324 88.672-191.406 180.797L481.604 326.68ZM149.354 709.93c62.727-73.55 115.223-137.313 157.484-191.281-39.906-65.102-92.496-104.192-157.765-117.266-21.836-4.102-42.742-4.785-62.719-2.047-19.969 2.73-37.258 8.734-51.86 18.016-14.593 9.281-26.953 20.601-37.078 33.953-21.824 28.742-30.351 60.523-25.578 95.344 8.383 61.199 43.88 107.668 106.485 139.406 20.851 10.586 44.531 18.543 71.031 23.875Zm20.062 3.422c41.883 5.843 87.743 5.351 137.579-1.485a449.63 449.63 0 0 0 38.25-6.937c5.476-22.781 6.832-44.25 4.062-64.406-5.117-37.375-16.058-72.274-32.828-104.704-71.813 89-120.836 148.18-147.063 177.532Zm0 0" fill="#ffde59" />
  <g clip-path="url(#a)">
    <g clip-path="url(#b)">
      <path fill="#ffde59" d="m349.008 662.863 63.379 38.7-126.68 207.468-63.379-38.703Zm0 0" />
    </g>
  </g>
</svg>
